<svg width="24" height="24" viewBox="0 0 24 24" fill="none" xmlns="http://www.w3.org/2000/svg">
<path d="M18.4027 3.98048C18.9397 3.44352 19.8111 3.44354 20.348 3.98048C20.885 4.51745 20.885 5.38882 20.348 5.9258L14.3207 11.9531L20.348 17.9805C20.885 18.5175 20.885 19.3888 20.348 19.9258C19.8111 20.4628 18.9397 20.4628 18.4027 19.9258L12.3754 13.8985L6.34804 19.9258C5.81107 20.4627 4.93969 20.4628 4.40273 19.9258C3.86579 19.3888 3.86579 18.5174 4.40273 17.9805L10.4301 11.9531L4.40273 5.9258C3.86576 5.38882 3.86576 4.51745 4.40273 3.98048C4.9397 3.44352 5.81107 3.44352 6.34804 3.98048L12.3754 10.0078L18.4027 3.98048Z" fill="white"/>
</svg>
