<svg width="24" height="24" viewBox="0 0 24 24" fill="none" xmlns="http://www.w3.org/2000/svg">
<path d="M14.0185 2.74648V6.17636C14.0185 6.70463 14.4398 7.13288 14.9596 7.13288H18.3345C19.173 7.13288 19.5929 6.10258 19 5.5L15.6251 2.07012C15.0322 1.46754 14.0185 1.89431 14.0185 2.74648Z" fill="white"/>
<path fill-rule="evenodd" clip-rule="evenodd" d="M11.0588 1C11.8385 1 12.4706 1.64237 12.4706 2.43478V6.73913C12.4706 7.79568 13.3133 8.65217 14.3529 8.65217H18.5882C19.3679 8.65217 20 9.29455 20 10.087V21.5652C20 22.3576 19.3679 23 18.5882 23H5.41176C4.63207 23 4 22.3576 4 21.5652V2.43478C4 1.64237 4.63207 1 5.41176 1H11.0588ZM7.65625 18C7.19656 18 6.82372 18.3782 6.82353 18.8454C6.82353 19.3127 7.19644 19.6917 7.65625 19.6917H13.0018C13.4616 19.6917 13.8346 19.3127 13.8346 18.8454C13.8344 18.3782 13.4615 18 13.0018 18H7.65625ZM7.65625 14.7836C7.19656 14.7836 6.82372 15.1618 6.82353 15.629C6.82353 16.0963 7.19644 16.4753 7.65625 16.4753H16.3438C16.8036 16.4753 17.1765 16.0963 17.1765 15.629C17.1763 15.1618 16.8034 14.7836 16.3438 14.7836H7.65625ZM7.79022 11.5C7.33053 11.5 6.95769 11.8782 6.9575 12.3454C6.9575 12.8127 7.33042 13.1917 7.79022 13.1917H16.4777C16.9375 13.1917 17.3104 12.8127 17.3104 12.3454C17.3103 11.8782 16.9374 11.5 16.4777 11.5H7.79022Z" fill="white"/>
</svg>
