<svg width="114" height="168" viewBox="0 0 114 168" fill="none" xmlns="http://www.w3.org/2000/svg">
<path d="M88.8335 32.5183C88.8335 37.0078 85.1879 40.6473 80.6907 40.6473C76.1935 40.6473 72.5478 37.0079 72.5478 32.5183C72.5478 28.0288 76.1935 24.3893 80.6907 24.3893C85.1879 24.3893 88.8335 28.0288 88.8335 32.5183Z" fill="#437257"/>
<path d="M78.2531 103.978C79.2673 101.186 82.3487 99.7264 85.1602 100.715C87.9879 101.71 89.4729 104.805 88.4766 107.627L83.3568 105.826L88.4749 107.632L88.4733 107.637C88.4721 107.641 88.4711 107.644 88.4699 107.647C88.4673 107.654 88.4642 107.662 88.4613 107.67C88.4555 107.686 88.4487 107.704 88.4415 107.723C88.4271 107.762 88.4102 107.808 88.3899 107.86C88.3493 107.965 88.2965 108.096 88.2308 108.25C88.0999 108.556 87.9154 108.957 87.6702 109.424C87.1842 110.348 86.4324 111.58 85.3456 112.844C83.1398 115.409 79.4352 118.208 73.9306 118.568C68.7472 118.906 63.9067 117.159 60.3324 113.386C56.8465 109.706 54.9753 104.548 54.5899 98.6689C54.2064 92.8179 55.3453 87.456 58.3035 83.3367C61.347 79.0987 65.9319 76.7293 71.1656 76.3873C76.5686 76.0343 80.5582 78.0722 83.1235 80.22C84.3769 81.2696 85.289 82.339 85.8987 83.1616C86.2059 83.5761 86.4447 83.938 86.6177 84.2188C86.7045 84.3596 86.7751 84.4818 86.8309 84.5803C86.8588 84.6294 86.8828 84.6734 86.9032 84.711C86.9134 84.7297 86.9229 84.747 86.9312 84.7627C86.9354 84.7705 86.9401 84.7779 86.9439 84.7849L86.9516 84.8002C86.9518 84.8031 86.8828 84.8419 82.2824 87.2434L86.9542 84.8053C88.3431 87.4575 87.315 90.7314 84.6583 92.1182C82.0028 93.5041 78.7248 92.4806 77.3344 89.8314L77.338 89.8364C77.3396 89.8393 77.3406 89.8428 77.3421 89.8456C77.3449 89.851 77.3483 89.8559 77.3509 89.8607C77.3562 89.8707 77.3609 89.8797 77.3649 89.8871C77.373 89.902 77.3784 89.9121 77.3815 89.9175C77.3791 89.9136 77.3755 89.907 77.3702 89.8983C77.3419 89.8525 77.2754 89.749 77.1708 89.6079C76.9567 89.3191 76.6148 88.9161 76.1471 88.5246C75.2698 87.79 73.9471 87.0672 71.8748 87.2026C69.6336 87.349 68.1353 88.2483 67.1273 89.6517C66.0339 91.1743 65.1529 93.8285 65.4236 97.9609C65.6926 102.065 66.9259 104.572 68.2207 105.938C69.4272 107.212 71.0436 107.895 73.2214 107.753C75.0779 107.631 76.2639 106.765 77.1079 105.784C77.546 105.274 77.8598 104.762 78.0574 104.386C78.1538 104.203 78.2149 104.065 78.245 103.994C78.2571 103.966 78.2641 103.95 78.2652 103.947C78.2652 103.947 78.2613 103.956 78.2566 103.969C78.2556 103.971 78.2542 103.974 78.2531 103.978ZM78.243 104.008L78.2378 104.021C78.2397 104.016 78.2409 104.01 78.2428 104.005L78.243 104.008ZM78.2481 103.993C78.2467 103.997 78.2443 104.001 78.2428 104.005C78.2461 103.996 78.2497 103.987 78.2531 103.978C78.2514 103.982 78.2501 103.987 78.2481 103.993Z" fill="#437257"/>
<path d="M2.17143 9.04832L2.17145 135.169C2.17145 139.659 5.81714 143.298 10.3143 143.298C14.8115 143.298 18.4572 139.659 18.4572 135.169L18.4572 76.0259C19.5853 79.7544 20.893 83.8863 22.3494 88.1705C24.9457 95.8079 28.0588 104.062 31.5186 111.425C34.8864 118.592 38.9339 125.694 43.6417 130.394C52.5172 139.254 62.2485 142.333 69.8197 143.098C73.5602 143.475 76.7506 143.289 79.0515 142.998C80.2059 142.852 81.1504 142.678 81.8442 142.529C82.1912 142.455 82.4769 142.386 82.6967 142.33C82.8067 142.302 82.901 142.278 82.9777 142.257C83.0159 142.247 83.0497 142.237 83.0795 142.229L83.1208 142.217L83.1399 142.212L83.1484 142.209C83.1519 142.207 83.1289 142.114 81.104 135.151L83.1558 142.206C87.4746 140.955 89.959 136.445 88.7052 132.134C87.4565 127.84 82.971 125.361 78.6681 126.578L78.6889 126.573L78.6677 126.579L78.6443 126.585C78.6401 126.587 78.6353 126.587 78.6306 126.589L78.6681 126.578C78.6245 126.589 78.542 126.608 78.4238 126.633C78.14 126.694 77.6549 126.787 77.003 126.869C75.6906 127.035 73.7574 127.154 71.4589 126.922C66.9516 126.467 60.9399 124.668 55.1583 118.897C52.5377 116.28 49.4601 111.324 46.2627 104.52C43.1574 97.911 40.265 90.2793 37.7721 82.9459C35.2871 75.6358 33.2426 68.7529 31.8187 63.6902C31.5271 62.6536 31.2617 61.6948 31.0245 60.826L61.7044 39.1518C65.3751 36.5582 66.2446 31.4844 63.6468 27.8198C61.0489 24.1554 55.9664 23.2873 52.2956 25.8807L18.4572 49.7875L18.4571 20.2644C18.4571 18.4686 19.9154 17.0128 21.7143 17.0128L92.9814 17.0128C94.7802 17.0128 96.2385 18.4686 96.2385 20.2644L96.2385 49.3163C96.2385 51.1122 94.7803 52.568 92.9814 52.568H61.5678C61.5678 52.568 54.5106 53.6518 54.5106 60.697C54.5106 67.7421 61.5678 68.826 61.5678 68.826H92.9814C94.7803 68.826 96.2385 70.2818 96.2385 72.0776L96.2385 147.407C96.2385 149.202 94.7803 150.658 92.9814 150.658L10.3143 150.658C5.81716 150.658 2.17148 154.298 2.17148 158.787C2.17148 163.277 5.81716 166.916 10.3143 166.916L104.381 166.916C108.879 166.916 112.524 163.277 112.524 158.787L112.524 9.04834C112.524 6.93603 111.667 4.90981 110.14 3.41619C108.613 1.92257 106.541 1.0839 104.381 1.0839L10.3143 1.08388C5.81711 1.08388 2.17143 4.64968 2.17143 9.04832Z" fill="#437257"/>
</svg>
