<!-- assets/icons/sprite.svg -->
<svg xmlns="http://www.w3.org/2000/svg" style="display: none;">
    <!-- Иконка Telegram -->
    <symbol id="icon-telegram" viewBox="0 0 24 24">
        <path d="M12.0273 0C18.6397 5.66946e-06 24 5.36034 24 11.9727V12.0273L23.9961 12.3359C23.8324 18.8056 18.5365 24 12.0273 24H11.9727C5.46352 24 0.167599 18.8056 0.00390625 12.3359L0 12.0273V11.9727C9.79268e-06 5.36034 5.36034 5.66963e-06 11.9727 0H12.0273ZM16.5811 7.06836C16.3656 6.97443 16.1175 6.99221 15.8926 7.03516C15.7741 7.05772 15.6588 7.098 15.541 7.11914C15.4008 7.14389 15.2588 7.22834 15.1279 7.28516C14.5391 7.53865 13.9492 7.79338 13.3604 8.04688C12.7716 8.30035 12.1816 8.55414 11.5928 8.80762C11.0041 9.06106 10.4149 9.31589 9.82617 9.56934C9.23734 9.82283 8.64743 10.0766 8.05859 10.3301L7.17578 10.7109C7.02821 10.7743 6.88097 10.838 6.7334 10.9014C6.66034 10.9334 6.58648 10.965 6.5127 10.9971C6.47441 11.0138 6.43574 11.0292 6.39746 11.0459C6.37212 11.0561 6.32751 11.0879 6.30078 11.0879C5.80459 11.302 5.30779 11.5164 4.81738 11.7451C4.78931 11.7582 4.76024 11.7716 4.73145 11.7861L4.72949 11.7852C4.61013 11.8463 4.49707 11.9223 4.43848 12.041C4.34531 12.2304 4.43411 12.4693 4.58887 12.6113C4.74361 12.7531 4.9502 12.8212 5.15039 12.8838C5.52728 13.0025 5.9061 13.1173 6.28516 13.2295C6.73719 13.3635 7.20759 13.4947 7.6748 13.4277C8.1969 13.3534 8.65081 13.0412 9.08398 12.7383C10.4121 11.8095 11.7402 10.8799 13.0684 9.95117C13.1739 9.87766 13.3072 9.80065 13.4229 9.85742C13.6171 9.95293 13.506 10.2517 13.3643 10.417C12.3595 11.5898 11.0083 12.4345 10.0723 13.6641C9.95942 13.8119 9.8491 13.9786 9.84766 14.165C9.84497 14.4744 10.1298 14.6968 10.3857 14.8672C11.4629 15.5854 12.541 16.3042 13.6182 17.0225C13.8777 17.195 14.1424 17.3703 14.4424 17.4541C14.7426 17.5371 15.089 17.5153 15.332 17.3193C15.6189 17.0876 15.6941 16.6856 15.749 16.3193C16.1527 13.649 16.5561 10.978 16.959 8.30762C17.0169 7.92446 17.0547 7.47654 16.7812 7.2041C16.7242 7.1467 16.6554 7.10109 16.5811 7.06836Z"/>
    </symbol>

    <!-- Иконка Resume (документ) -->
    <symbol id="icon-resume" viewBox="0 0 24 24">
        <path d="M14.0185 2.74648V6.17636C14.0185 6.70463 14.4398 7.13288 14.9596 7.13288H18.3345C19.173 7.13288 19.5929 6.10258 19 5.5L15.6251 2.07012C15.0322 1.46754 14.0185 1.89431 14.0185 2.74648Z" fill="white"/>
        <path fill-rule="evenodd" clip-rule="evenodd" d="M11.0588 1C11.8385 1 12.4706 1.64237 12.4706 2.43478V6.73913C12.4706 7.79568 13.3133 8.65217 14.3529 8.65217H18.5882C19.3679 8.65217 20 9.29455 20 10.087V21.5652C20 22.3576 19.3679 23 18.5882 23H5.41176C4.63207 23 4 22.3576 4 21.5652V2.43478C4 1.64237 4.63207 1 5.41176 1H11.0588Z"/>
    </symbol>

    <!-- Иконка WhatsApp -->
    <symbol id="icon-whatsapp" viewBox="0 0 24 24">
        <path d="M14.9783 17C10.5798 17 7.0012 13.4202 7 9.02168C7.0012 7.90669 7.90909 7 9.02168 7C9.13607 7 9.24924 7.00963 9.35761 7.0289C9.59602 7.06863 9.8224 7.14931 10.0307 7.27092C10.0608 7.28898 10.0813 7.31789 10.0861 7.3516L10.5509 10.2812C10.5569 10.3149 10.5461 10.3498 10.5232 10.3751C10.2667 10.6592 9.93919 10.8639 9.57435 10.9663L9.39856 11.0157L9.46478 11.1854C10.0644 12.7122 11.2854 13.932 12.8134 14.534L12.9831 14.6014L13.0325 14.4257C13.1349 14.0608 13.3396 13.7333 13.6237 13.4768C13.6442 13.4576 13.6719 13.4479 13.6996 13.4479C13.7056 13.4479 13.7116 13.4479 13.7188 13.4491L16.6484 13.9139C16.6833 13.9199 16.7122 13.9392 16.7303 13.9693C16.8507 14.1776 16.9314 14.4052 16.9723 14.6436C16.9916 14.7496 17 14.8615 17 14.9783C17 16.0921 16.0933 16.9988 14.9783 17Z" fill="white"/>
    </symbol>

    <!-- Иконка стрелки (для навигации) -->
    <symbol id="icon-arrow" viewBox="0 0 24 24">
        <path d="M11.007 22.3823C11.5307 22.9059 12.3796 22.9059 12.9033 22.3823C13.4269 21.8587 13.4269 21.0097 12.9033 20.4861L5.711 13.2938H21.4362C22.1767 13.2938 22.7769 12.6937 22.7769 11.9531C22.7769 11.2126 22.1767 10.6125 21.4362 10.6125H5.711L12.9033 3.42021C13.4269 2.89659 13.4269 2.04763 12.9033 1.524C12.3796 1.00038 11.5307 1.00038 11.007 1.524L1.52602 11.005C1.00239 11.5287 1.0024 12.3776 1.52602 12.9012L11.007 22.3823Z"/>
    </symbol>

    <!-- Иконка крестика (закрыть) -->
    <symbol id="icon-close" viewBox="0 0 24 24">
        <path d="M18.4027 3.98048C18.9397 3.44352 19.8111 3.44354 20.348 3.98048C20.885 4.51745 20.885 5.38882 20.348 5.9258L14.3207 11.9531L20.348 17.9805C20.885 18.5175 20.885 19.3888 20.348 19.9258C19.8111 20.4628 18.9397 20.4628 18.4027 19.9258L12.3754 13.8985L6.34804 19.9258C5.81107 20.4627 4.93969 20.4628 4.40273 19.9258C3.86579 19.3888 3.86579 18.5174 4.40273 17.9805L10.4301 11.9531L4.40273 5.9258C3.86576 5.38882 3.86576 4.51745 4.40273 3.98048C4.9397 3.44352 5.81107 3.44352 6.34804 3.98048L12.3754 10.0078L18.4027 3.98048Z"/>
    </symbol>
</svg>