<svg width="24" height="24" viewBox="0 0 24 24" fill="none" xmlns="http://www.w3.org/2000/svg">
<path d="M12.0273 0C18.6397 5.66946e-06 24 5.36034 24 11.9727V12.0273L23.9961 12.3359C23.8324 18.8056 18.5365 24 12.0273 24H11.9727C5.46352 24 0.167599 18.8056 0.00390625 12.3359L0 12.0273V11.9727C9.79268e-06 5.36034 5.36034 5.66963e-06 11.9727 0H12.0273ZM16.5811 7.06836C16.3656 6.97443 16.1175 6.99221 15.8926 7.03516C15.7741 7.05772 15.6588 7.098 15.541 7.11914C15.4008 7.14389 15.2588 7.22834 15.1279 7.28516C14.5391 7.53865 13.9492 7.79338 13.3604 8.04688C12.7716 8.30035 12.1816 8.55414 11.5928 8.80762C11.0041 9.06106 10.4149 9.31589 9.82617 9.56934C9.23734 9.82283 8.64743 10.0766 8.05859 10.3301L7.17578 10.7109C7.02821 10.7743 6.88097 10.838 6.7334 10.9014C6.66034 10.9334 6.58648 10.965 6.5127 10.9971C6.47441 11.0138 6.43574 11.0292 6.39746 11.0459C6.37212 11.0561 6.32751 11.0879 6.30078 11.0879C5.80459 11.302 5.30779 11.5164 4.81738 11.7451C4.78931 11.7582 4.76024 11.7716 4.73145 11.7861L4.72949 11.7852C4.61013 11.8463 4.49707 11.9223 4.43848 12.041C4.34531 12.2304 4.43411 12.4693 4.58887 12.6113C4.74361 12.7531 4.9502 12.8212 5.15039 12.8838C5.52728 13.0025 5.9061 13.1173 6.28516 13.2295C6.73719 13.3635 7.20759 13.4947 7.6748 13.4277C8.1969 13.3534 8.65081 13.0412 9.08398 12.7383C10.4121 11.8095 11.7402 10.8799 13.0684 9.95117C13.1739 9.87766 13.3072 9.80065 13.4229 9.85742C13.6171 9.95293 13.506 10.2517 13.3643 10.417C12.3595 11.5898 11.0083 12.4345 10.0723 13.6641C9.95942 13.8119 9.8491 13.9786 9.84766 14.165C9.84497 14.4744 10.1298 14.6968 10.3857 14.8672C11.4629 15.5854 12.541 16.3042 13.6182 17.0225C13.8777 17.195 14.1424 17.3703 14.4424 17.4541C14.7426 17.5371 15.089 17.5153 15.332 17.3193C15.6189 17.0876 15.6941 16.6856 15.749 16.3193C16.1527 13.649 16.5561 10.978 16.959 8.30762C17.0169 7.92446 17.0547 7.47654 16.7812 7.2041C16.7242 7.1467 16.6554 7.10109 16.5811 7.06836Z" fill="white"/>
</svg>
