<svg width="24" height="24" viewBox="0 0 24 24" fill="none" xmlns="http://www.w3.org/2000/svg">
<path d="M12.0273 22.7998V24H11.9727V22.7998H12.0273ZM22.7998 12.0273V11.9727C22.7998 6.02308 17.9769 1.2002 12.0273 1.2002H11.9727C6.02308 1.2002 1.20021 6.02308 1.2002 11.9727V12.0273C1.2002 17.9769 6.02308 22.7998 11.9727 22.7998V24C5.46352 24 0.167599 18.8056 0.00390625 12.3359L0 12.0273V11.9727C9.79268e-06 5.36034 5.36034 5.66963e-06 11.9727 0H12.0273C18.6397 5.66946e-06 24 5.36034 24 11.9727V12.0273L23.9961 12.3359C23.8324 18.8056 18.5365 24 12.0273 24V22.7998C17.9769 22.7998 22.7998 17.9769 22.7998 12.0273Z" fill="white"/>
<path d="M4.73103 11.7864C4.75997 11.7718 4.78892 11.7579 4.81713 11.7448C5.30759 11.5161 5.80456 11.302 6.3008 11.0878C6.32757 11.0878 6.37241 11.0565 6.39773 11.0463C6.43607 11.0295 6.47441 11.0135 6.51275 10.9967C6.58654 10.9647 6.66033 10.9334 6.73339 10.9013C6.88096 10.8379 7.0278 10.7746 7.17537 10.7112L8.05863 10.3302C8.64747 10.0767 9.23705 9.8225 9.82589 9.569C10.4147 9.31551 11.0043 9.06128 11.5931 8.80779C12.182 8.55429 12.7715 8.30007 13.3604 8.04658C13.9492 7.79308 14.5388 7.53886 15.1276 7.28536C15.2586 7.22854 15.4003 7.14404 15.5407 7.11927C15.6586 7.09815 15.7736 7.05736 15.8922 7.03478C16.1172 6.9918 16.3653 6.97432 16.5809 7.06829C16.6554 7.10107 16.7241 7.14696 16.7813 7.2045C17.0547 7.47694 17.0164 7.9242 16.9585 8.30735C16.5556 10.9778 16.1527 13.649 15.749 16.3194C15.694 16.6858 15.6188 17.0879 15.3316 17.3196C15.0886 17.5155 14.7428 17.5374 14.4426 17.4543C14.1424 17.3705 13.8776 17.195 13.6179 17.0224C12.5408 16.3041 11.4629 15.5859 10.3858 14.8676C10.1297 14.6972 9.8447 14.4743 9.8476 14.1647C9.84904 13.9782 9.95971 13.8121 10.0726 13.6643C11.0086 12.4347 12.3592 11.5897 13.364 10.4169C13.5058 10.2515 13.6172 9.95289 13.4226 9.85746C13.3068 9.80065 13.1737 9.87786 13.0681 9.95143C11.74 10.8802 10.4126 11.8097 9.08441 12.7384C8.6511 13.0415 8.19681 13.3532 7.67452 13.4275C7.20721 13.4945 6.73701 13.3634 6.28489 13.2294C5.90583 13.1172 5.52749 13.0021 5.1506 12.8834C4.95022 12.8207 4.74333 12.753 4.58852 12.6109C4.43372 12.4689 4.34475 12.23 4.43807 12.0406C4.49667 11.9218 4.61024 11.8468 4.7296 11.7856L4.73103 11.7864Z" fill="white"/>
</svg>
