<svg width="24" height="24" viewBox="0 0 24 24" fill="none" xmlns="http://www.w3.org/2000/svg">
<path d="M14.9783 17C10.5798 17 7.0012 13.4202 7 9.02168C7.0012 7.90669 7.90909 7 9.02168 7C9.13607 7 9.24924 7.00963 9.35761 7.0289C9.59602 7.06863 9.8224 7.14931 10.0307 7.27092C10.0608 7.28898 10.0813 7.31789 10.0861 7.3516L10.5509 10.2812C10.5569 10.3149 10.5461 10.3498 10.5232 10.3751C10.2667 10.6592 9.93919 10.8639 9.57435 10.9663L9.39856 11.0157L9.46478 11.1854C10.0644 12.7122 11.2854 13.932 12.8134 14.534L12.9831 14.6014L13.0325 14.4257C13.1349 14.0608 13.3396 13.7333 13.6237 13.4768C13.6442 13.4576 13.6719 13.4479 13.6996 13.4479C13.7056 13.4479 13.7116 13.4479 13.7188 13.4491L16.6484 13.9139C16.6833 13.9199 16.7122 13.9392 16.7303 13.9693C16.8507 14.1776 16.9314 14.4052 16.9723 14.6436C16.9916 14.7496 17 14.8615 17 14.9783C17 16.0921 16.0933 16.9988 14.9783 17Z" fill="white"/>
<path d="M12.0273 22.7998V24H11.9727V22.7998H12.0273ZM22.7998 12.0273V11.9727C22.7998 6.02308 17.9769 1.2002 12.0273 1.2002H11.9727C6.02308 1.2002 1.2002 6.02308 1.2002 11.9727V12.0273C1.2002 14.1747 1.82664 16.1722 2.90723 17.8506L3.22363 18.3408L1.93848 22.0605L5.11035 20.9678L5.56836 20.8105L6.00684 21.0137L6.00781 21.0146C6.00781 21.0146 6.01151 21.0161 6.01465 21.0176C6.02113 21.0206 6.03204 21.0249 6.0459 21.0312C6.07363 21.0439 6.11594 21.0634 6.1709 21.0879C6.28115 21.137 6.44329 21.2084 6.64551 21.2939C7.05122 21.4656 7.61527 21.6941 8.24902 21.9219C9.5674 22.3958 11.0101 22.7998 11.9727 22.7998V24C9.60164 24 5.54579 22.1229 5.50195 22.1025L0 24L1.89844 18.5C0.772024 16.7504 0.0888278 14.6883 0.0078125 12.4727L0 12.0273V11.9727C9.27728e-06 5.36034 5.36034 5.66963e-06 11.9727 0H12.0273C18.6397 5.66946e-06 24 5.36034 24 11.9727V12.0273L23.9961 12.3359C23.8324 18.8056 18.5365 24 12.0273 24V22.7998C17.9769 22.7998 22.7998 17.9769 22.7998 12.0273Z" fill="white"/>
</svg>
